TITLE ""
FILE "Disc2Track59.mp3" MP3
  TRACK 01 AUDIO
    TITLE "Disc2Track59_01"
    INDEX 01 00:00:00
  TRACK 02 AUDIO
    TITLE "Disc2Track59_02"
    INDEX 01 00:01:14
  TRACK 03 AUDIO
    TITLE "Disc2Track59_03"
    INDEX 01 00:02:21
  TRACK 04 AUDIO
    TITLE "Disc2Track59_04"
    INDEX 01 00:03:46
  TRACK 05 AUDIO
    TITLE "Disc2Track59_05"
    INDEX 01 00:04:12
  TRACK 06 AUDIO
    TITLE "Disc2Track59_06"
    INDEX 01 00:05:23
  TRACK 07 AUDIO
    TITLE "Disc2Track59_07"
    INDEX 01 00:06:74
  TRACK 08 AUDIO
    TITLE "Disc2Track59_08"
    INDEX 01 00:08:10
  TRACK 09 AUDIO
    TITLE "Disc2Track59_09"
    INDEX 01 00:08:51
  TRACK 10 AUDIO
    TITLE "Disc2Track59_10"
    INDEX 01 00:10:05
  TRACK 11 AUDIO
    TITLE "Disc2Track59_11"
    INDEX 01 00:10:62
  TRACK 12 AUDIO
    TITLE "Disc2Track59_12"
    INDEX 01 00:12:15
  TRACK 13 AUDIO
    TITLE "Disc2Track59_13"
    INDEX 01 00:12:49
  TRACK 14 AUDIO
    TITLE "Disc2Track59_14"
    INDEX 01 00:13:68
  TRACK 15 AUDIO
    TITLE "Disc2Track59_15"
    INDEX 01 00:14:75
  TRACK 16 AUDIO
    TITLE "Disc2Track59_16"
    INDEX 01 00:16:21
  TRACK 17 AUDIO
    TITLE "Disc2Track59_17"
    INDEX 01 00:16:58
  TRACK 18 AUDIO
    TITLE "Disc2Track59_18"
    INDEX 01 00:18:18
  TRACK 19 AUDIO
    TITLE "Disc2Track59_19"
    INDEX 01 00:20:01
  TRACK 20 AUDIO
    TITLE "Disc2Track59_20"
    INDEX 01 00:21:36
  TRACK 21 AUDIO
    TITLE "Disc2Track59_21"
    INDEX 01 00:25:08
  TRACK 22 AUDIO
    TITLE "Disc2Track59_22"
    INDEX 01 00:25:40
  TRACK 23 AUDIO
    TITLE "Disc2Track59_23"
    INDEX 01 00:26:74
  TRACK 24 AUDIO
    TITLE "Disc2Track59_24"
    INDEX 01 00:29:57
  TRACK 25 AUDIO
    TITLE "Disc2Track59_25"
    INDEX 01 00:31:17
  TRACK 26 AUDIO
    TITLE "Disc2Track59_26"
    INDEX 01 00:35:46
  TRACK 27 AUDIO
    TITLE "Disc2Track59_27"
    INDEX 01 00:36:02
  TRACK 28 AUDIO
    TITLE "Disc2Track59_28"
    INDEX 01 00:37:33
  TRACK 29 AUDIO
    TITLE "Disc2Track59_29"
    INDEX 01 00:38:25
  TRACK 30 AUDIO
    TITLE "Disc2Track59_30"
    INDEX 01 00:39:57
  TRACK 31 AUDIO
    TITLE "Disc2Track59_31"
    INDEX 01 00:40:10
  TRACK 32 AUDIO
    TITLE "Disc2Track59_32"
    INDEX 01 00:41:23
  TRACK 33 AUDIO
    TITLE "Disc2Track59_33"
    INDEX 01 00:44:29
  TRACK 34 AUDIO
    TITLE "Disc2Track59_34"
    INDEX 01 00:45:38
  TRACK 35 AUDIO
    TITLE "Disc2Track59_35"
    INDEX 01 00:47:33
  TRACK 36 AUDIO
    TITLE "Disc2Track59_36"
    INDEX 01 00:47:73
  TRACK 37 AUDIO
    TITLE "Disc2Track59_37"
    INDEX 01 00:49:17
  TRACK 38 AUDIO
    TITLE "Disc2Track59_38"
    INDEX 01 00:50:51
  TRACK 39 AUDIO
    TITLE "Disc2Track59_39"
    INDEX 01 00:51:66
  TRACK 40 AUDIO
    TITLE "Disc2Track59_40"
    INDEX 01 00:58:02
  TRACK 41 AUDIO
    TITLE "Disc2Track59_41"
    INDEX 01 00:58:31
  TRACK 42 AUDIO
    TITLE "Disc2Track59_42"
    INDEX 01 00:59:70
  TRACK 43 AUDIO
    TITLE "Disc2Track59_43"
    INDEX 01 01:00:75
  TRACK 44 AUDIO
    TITLE "Disc2Track59_44"
    INDEX 01 01:02:37
  TRACK 45 AUDIO
    TITLE "Disc2Track59_45"
    INDEX 01 01:04:18
  TRACK 46 AUDIO
    TITLE "Disc2Track59_46"
    INDEX 01 01:04:57
  TRACK 47 AUDIO
    TITLE "Disc2Track59_47"
    INDEX 01 01:06:03
  TRACK 48 AUDIO
    TITLE "Disc2Track59_48"
    INDEX 01 01:08:20
  TRACK 49 AUDIO
    TITLE "Disc2Track59_49"
    INDEX 01 01:09:37
  TRACK 50 AUDIO
    TITLE "Disc2Track59_50"
    INDEX 01 01:13:35
  TRACK 51 AUDIO
    TITLE "Disc2Track59_51"
    INDEX 01 01:13:66
  TRACK 52 AUDIO
    TITLE "Disc2Track59_52"
    INDEX 01 01:15:12
  TRACK 53 AUDIO
    TITLE "Disc2Track59_53"
    INDEX 01 01:16:60
  TRACK 54 AUDIO
    TITLE "Disc2Track59_54"
    INDEX 01 01:18:06
  TRACK 55 AUDIO
    TITLE "Disc2Track59_55"
    INDEX 01 01:18:44
  TRACK 56 AUDIO
    TITLE "Disc2Track59_56"
    INDEX 01 01:19:65
  TRACK 57 AUDIO
    TITLE "Disc2Track59_57"
    INDEX 01 01:20:62
  TRACK 58 AUDIO
    TITLE "Disc2Track59_58"
    INDEX 01 01:22:04
  TRACK 59 AUDIO
    TITLE "Disc2Track59_59"
    INDEX 01 01:25:52
  TRACK 60 AUDIO
    TITLE "Disc2Track59_60"
    INDEX 01 01:26:06
  TRACK 61 AUDIO
    TITLE "Disc2Track59_61"
    INDEX 01 01:27:39
  TRACK 62 AUDIO
    TITLE "Disc2Track59_62"
    INDEX 01 01:28:68
  TRACK 63 AUDIO
    TITLE "Disc2Track59_63"
    INDEX 01 01:30:29
  TRACK 64 AUDIO
    TITLE "Disc2Track59_64"
    INDEX 01 01:30:66
  TRACK 65 AUDIO
    TITLE "Disc2Track59_65"
    INDEX 01 01:32:30
  TRACK 66 AUDIO
    TITLE "Disc2Track59_66"
    INDEX 01 01:34:23
  TRACK 67 AUDIO
    TITLE "Disc2Track59_67"
    INDEX 01 01:35:62
  TRACK 68 AUDIO
    TITLE "Disc2Track59_68"
    INDEX 01 01:42:19
  TRACK 69 AUDIO
    TITLE "Disc2Track59_69"
    INDEX 01 01:42:56
  TRACK 70 AUDIO
    TITLE "Disc2Track59_70"
    INDEX 01 01:44:20
  TRACK 71 AUDIO
    TITLE "Disc2Track59_71"
    INDEX 01 01:46:50
  TRACK 72 AUDIO
    TITLE "Disc2Track59_72"
    INDEX 01 01:48:17
